<?xml version="1.0" encoding="utf-8"?>
<!-- Generator: Adobe Illustrator 19.0.0, SVG Export Plug-In . SVG Version: 6.00 Build 0)  -->
<svg version="1.1" id="Layer_1" xmlns="http://www.w3.org/2000/svg" xmlns:xlink="http://www.w3.org/1999/xlink" x="0px" y="0px"
	 viewBox="-289 381 32 32" style="enable-background:new -289 381 32 32;" xml:space="preserve">
<style type="text/css">
	.st0{fill:none;stroke:#FFFFFF;stroke-width:2;stroke-linecap:round;stroke-linejoin:round;stroke-miterlimit:10;}
</style>
<g>
	<polyline class="st0" points="360,519 386,519 386,537 372,537 	"/>
	<polyline class="st0" points="364,537 360,537 360,523 	"/>
	<polyline class="st0" points="372,537 364,543 364,537 	"/>
</g>
<path d="M-259.6,384H-286c-0.6,0-1,0.5-1,1s0.6,0.6,1.2,0.6h26l-0.1,16.9l-13.4,0.1c0,0-0.1,0-0.1,0c-0.1,0-0.1,0-0.2,0
	c-0.1,0-0.1,0.1-0.2,0.1c0,0-0.1,0-0.1,0l-6.5,4.8l-0.3-4.4l0,0l0,0c0-0.6-0.5-1-1-1l-3.5,0.1l0-13.2c0-0.6,0-1-0.6-1
	c-0.6,0-1,0.5-1,1l0.2,13.9c0,0.6,0.5,1,1,1l3.6,0.4l-0.4,4.5c0,0.4,0.2,0.7,0.6,0.9c0.1,0.1,0.3,0.1,0.5,0.1c0.2,0,0.4-0.1,0.6-0.2
	l7.7-5.8l13.6,0.1c0.6,0,1-0.5,1-1l0.1-17.9C-258.5,384.5-259,384-259.6,384z"/>
<g transform="translate(0.000000,512.000000) scale(0.100000,-0.100000)">
	<path d="M-2762.4,1259.3c-25.9-6.2-53.3-17.4-72.5-29.7c-7.4-4.7-7.9-5.2-7.9-7.3c0.1-1.8,11.7-15,61.5-69.3
		c51.3-56,61.8-67.1,63.9-67.5c5.9-1.2,4.1-4.7,42.9,85.6c29.1,67.6,35.7,83.9,35.2,85.6c-0.6,2-1.3,2.3-9.8,4.3
		C-2682.1,1268.9-2724.7,1268.3-2762.4,1259.3z M-2728.5,1256.6c9.9,1,21.4,1.6,28.2,1.5l3.4-0.1l-0.9-2.9c-1.7-5.6,0.6-8.9,5.7-8
		c3.1,0.5,5.2,3,6.1,7.2c0.4,1.7,0.8,3.1,1,3.1c1.4,0.2,16.7-1.8,24.2-3.2l9.3-1.7l-3.4-7.5c-1.8-4.2-3.4-7.6-3.5-7.7
		c-0.1-0.1-4.3,0.2-9.3,0.8c-20.3,2.3-46.3,2-62.4-0.8l-4.7-0.8l-0.9,3.6c-0.8,3.2-1.2,3.7-3.5,4.2c-2.4,0.4-2.9,0.4-5-0.8
		c-2.1-1.3-2.3-1.8-2-5.1l0.3-3.7l-4.7-0.8c-16.1-2.7-40.7-10.9-59.2-19.8c-4.5-2.2-8.4-4-8.5-3.9c-0.2,0-2.8,2.8-5.9,6.1l-5.7,6
		l8.2,4.7c6.6,3.8,20.4,10.8,21.8,11c0.2,0,1-1.1,1.9-2.6c2.2-3.6,5.1-5.3,8-4.9c5.3,0.9,6.4,4.7,2.9,9.5l-1.8,2.4l3.2,1.2
		C-2769.1,1249.7-2747.4,1254.6-2728.5,1256.6z M-2714.8,1230.5c10.9,0.7,19.1,0.9,29.5,0.4c11.1-0.5,23.5-2.2,23.2-3.1
		c-0.4-1.2-26.6-62-26.8-62.3c-0.1-0.1-2.2,0.1-4.5,0.4c-10.9,1.5-20.7-1.4-27.6-8.1c-11.1-11.1-5.2-25.3,11.6-27.9
		c2.7-0.4,4.8-0.9,4.7-1.2c-1.9-5-12.2-28.2-12.7-28.3c-0.3,0-10.6,10.9-22.9,24.3l-22.4,24.4l2.3,1.5c3.8,2.5,8.7,8.5,9.7,12.2
		c1.2,4.4-0.7,12.7-3.6,15.6c-4,3.8-8.9,6.2-15.2,7.3c-5.2,0.8-7.1,0.8-12.7-0.1c-3.6-0.6-7.6-1.6-8.8-2.1c-2.1-1-2.2-1-11.2,8.9
		c-4.9,5.4-9.1,10.1-9.4,10.4c-0.8,1,21.4,10.9,34.6,15.4C-2760.1,1223.8-2732.7,1229.3-2714.8,1230.5z M-2776.4,1177.6
		c10.1,0.1,16.8-7.8,13.2-15.5c-1.3-2.8-4.8-6.2-5.9-5.7c-0.5,0.2-17.6,19-17.7,19.4s4.5,1.6,6.2,1.7
		C-2779.8,1177.6-2777.9,1177.6-2776.4,1177.6z M-2697.8,1157.6c1.9-0.2,3.7-0.8,4-1.2c0.4-0.5-1-4.8-3.1-9.7l-3.8-8.8l-2.9,0.1
		c-10.4,0.3-14.7,8.9-7.7,15.4C-2707.7,1156.9-2703.2,1158.3-2697.8,1157.6z"/>
	<path d="M-2720.9,1215.8c-6.8-2.8-13.4-9.3-14.9-14.9c-1.8-7,1.7-14.3,9.1-18.5c7.8-4.5,21.7-4,31.1,1.2
		c8.2,4.5,12.2,10.9,11.7,18.2c-0.5,6.5-3.1,9.9-10,13.4c-3.7,1.8-6.9,2.7-9.9,2.9C-2708.5,1218.4-2717.2,1217.2-2720.9,1215.8z
		 M-2704.3,1209.3c12.3-2.9,12-15.7-0.5-20.3c-6.3-2.3-14.6-0.9-18,3.2C-2730,1200.6-2717.3,1212.3-2704.3,1209.3z"/>
</g>
</svg>
