<?xml version="1.0" encoding="utf-8"?>
<!-- Generator: Adobe Illustrator 19.0.0, SVG Export Plug-In . SVG Version: 6.00 Build 0)  -->
<svg version="1.1" id="Capa_1" xmlns="http://www.w3.org/2000/svg" xmlns:xlink="http://www.w3.org/1999/xlink" x="0px" y="0px"
	 viewBox="-97 189.1 415.9 415.9" style="enable-background:new -97 189.1 415.9 415.9;" xml:space="preserve">
<style type="text/css">
	.st0{fill:none;}
</style>
<line class="st0" x1="-197" y1="237.2" x2="-185.1" y2="249.2"/>
<g>
	<path d="M300.1,518.1v-24.3c8.8-6.3,14.6-16.6,14.6-28.3c0-11.7-5.8-22-14.6-28.3v-53.6c9.7-3.8,16.6-13.3,16.6-24.3
		c0-93.8-76.3-170.1-170.1-170.1H75.3c-93.8,0-170.1,76.3-170.1,170.1c0,11,6.9,20.5,16.5,24.3v53.6c-8.8,6.3-14.6,16.6-14.6,28.3
		c0,11.6,5.8,22,14.6,28.3v24.3c-9.9,6.1-16.5,17-16.5,29.5c0,31.7,25.8,57.5,57.5,57.5h296.5c31.7,0,57.5-25.8,57.5-57.5
		C316.7,535.1,310,524.1,300.1,518.1z M-80.8,359.3c0-86.1,70-156.2,156.1-156.2h71.2c86.1,0,156.1,70.1,156.1,156.2
		c0,6.7-5.4,12.1-12.1,12.1H-68.7C-75.4,371.4-80.8,366-80.8,359.3z M286.1,418.2v12.8H64.6c-1.9,0-3.6,0.7-5,2L32,448.7L4.9,433
		c-1.3-1.3-3.1-2-5-2h-64.3v-12.8H286.1z M-64.3,404.2v-18.8h187.5v18.8H-64.3z M137.3,404.2v-18.8l62.1-0.5l0,18.8L137.3,404.2z
		 M214.5,404.2v-18.8h69v18.8H214.5z M-78.9,465.5c0-10.5,7.9-19.2,18.1-20.5h57.9l30,18.6c1.3,1.3,3.1,2,5,2s3.6-0.7,5-2l30.5-18.6
		h215.2c11.1,1.4,19.4,11.6,17.9,23.4c-1.4,10.4-10.6,17.9-21,17.9H-58.1C-69.5,486.2-78.9,476.9-78.9,465.5z M286.1,500.2V513
		h-64.2c-1.9,0-3.6,0.7-5,2.1l-27.4,20.1l-27.3-20.1c-1.3-1.3-3.1-2.1-4.9-2.1H-64.3v-12.8H286.1z M259.2,591H-37.3
		c-24,0-43.5-19.5-43.5-43.5c0-11.3,9.2-20.5,20.5-20.5h214.7l30.2,23c1.4,1.4,3.2,2,5,2s3.6-0.7,5-2l30.3-23h57.4
		c11.3,0,20.5,9.2,20.5,20.5C302.7,571.5,283.2,591,259.2,591z"/>
	<path d="M-12.9,290.7c1.8,0,3.6-0.7,4.9-2l15-15c2.7-2.7,2.7-7.2,0-9.9c-2.7-2.7-7.2-2.7-9.9,0l-15,15c-2.7,2.7-2.7,7.2,0,9.9
		C-16.5,290.1-14.7,290.7-12.9,290.7z"/>
	<path d="M101.9,290.7c1.8,0,3.6-0.7,4.9-2l15-15c2.7-2.7,2.7-7.2,0-9.9c-2.7-2.7-7.2-2.7-9.9,0l-15,15c-2.7,2.7-2.7,7.2,0,9.9
		C98.3,290.1,100.1,290.7,101.9,290.7z"/>
	<path d="M195.3,290.7c1.8,0,3.6-0.7,5-2l15-15c2.7-2.7,2.7-7.2,0-9.9c-2.7-2.7-7.2-2.7-9.9,0l-15,15c-2.7,2.7-2.7,7.2,0,9.9
		C191.7,290.1,193.5,290.7,195.3,290.7z"/>
	<path d="M166,247.1c1.4,1.4,3.2,2.1,5,2.1s3.6-0.7,5-2.1c2.7-2.7,2.7-7.2,0-9.9l-15-15c-2.7-2.7-7.2-2.7-9.9,0
		c-2.7,2.7-2.7,7.2,0,9.9L166,247.1z"/>
	<path d="M61,247.1c1.4,1.4,3.2,2.1,4.9,2.1s3.6-0.7,4.9-2.1c2.7-2.7,2.7-7.2,0-9.9l-15-15c-2.7-2.7-7.2-2.7-9.9,0
		c-2.7,2.7-2.7,7.2,0,9.9L61,247.1z"/>
	<path d="M157.9,278.7 M164.7,282.9 M164.7,282.9"/>
	<path d="M14.9,278.8 M21.8,282.8 M21.8,282.8"/>
	<path d="M275.3,280.4"/>
	<path d="M13.8,281.7"/>
</g>
</svg>
