<?xml version="1.0" encoding="utf-8"?>
<!-- Generator: Adobe Illustrator 19.0.0, SVG Export Plug-In . SVG Version: 6.00 Build 0)  -->
<svg version="1.1" id="Capa_1" xmlns="http://www.w3.org/2000/svg" xmlns:xlink="http://www.w3.org/1999/xlink" x="0px" y="0px"
 style="enable-background:new -97 189.1 415.9 415.9;" xml:space="preserve" viewBox="0 0 237 237">

<style type="text/css">
    .pathDelete{
    fill: #707684;
    }
</style>
<path class='pathDelete' transform="rotate(45 280.675 51.325)" d="M191 191V73c0-5.523 4.477-10 10-10h25c5.523 0 10 4.477 10 10v118h118c5.523 0 10 4.477 10 10v25c0 5.523-4.477 10-10 10H236v118c0 5.523-4.477 10-10 10h-25c-5.523 0-10-4.477-10-10V236H73c-5.523 0-10-4.477-10-10v-25c0-5.523 4.477-10 10-10h118z"></path>




</svg>
