<?xml version="1.0" encoding="utf-8"?>
<!-- Generator: Adobe Illustrator 19.0.0, SVG Export Plug-In . SVG Version: 6.00 Build 0)  -->
<svg version="1.1"
	 id="Warstwa_1" xmlns:cc="http://creativecommons.org/ns#" xmlns:inkscape="http://www.inkscape.org/namespaces/inkscape" xmlns:sodipodi="http://sodipodi.sourceforge.net/DTD/sodipodi-0.dtd" xmlns:svg="http://www.w3.org/2000/svg" xmlns:rdf="http://www.w3.org/1999/02/22-rdf-syntax-ns#" xmlns:dc="http://purl.org/dc/elements/1.1/"
	 xmlns="http://www.w3.org/2000/svg" xmlns:xlink="http://www.w3.org/1999/xlink" x="0px" y="0px" viewBox="-255 347 100 100"
	 style="enable-background:new -255 347 100 100;" xml:space="preserve">
<g>
	<g>
		<path d="M-173.1,412c-0.1-0.2-0.2-0.3-0.3-0.4c-0.9-1.4-2.3-2.3-3.9-2.6c-1.6-0.3-3.1,0.1-4.4,1.1l-17.1,13h-17.8
			c-0.8,0-1.5-0.7-1.5-1.6s0.7-1.6,1.5-1.6h9.9c2.9,0,5.3-2.6,5.3-5.7c0,0,0-0.2,0-0.2c-0.1-3.1-2.6-5.6-5.5-5.5h-19.9
			c-1.8,0-3.5,0.7-4.8,1.9l-7.5,6.6c-0.3,0.3-0.5,0.8-0.5,1.3v19.6c0,0.9,0.7,1.6,1.5,1.6h37.9c2.5,0,4.9-0.9,6.8-2.6l18.5-16.3
			C-172.3,418.5-171.5,414.8-173.1,412z M-176.6,417.9l-18.6,16.4c-1.4,1.2-3.1,1.9-4.9,1.9h-36.3V419l6.9-6.1
			c0.8-0.7,1.8-1.1,2.9-1.1l19.9,0c1.3,0,2.3,1,2.4,2.4c0,1.3-1,2.4-2.3,2.4h-9.9c-2.5,0-4.6,2.2-4.6,4.9s2.1,4.9,4.6,4.9h18.3
			c0.3,0,0.6-0.1,0.9-0.3l17.5-13.3c0.6-0.5,1.4-0.7,2.2-0.5c0.8,0.1,1.4,0.6,1.9,1.3c0,0.1,0.1,0.1,0.1,0.2
			C-175,415-175.3,416.8-176.6,417.9z"/>
	</g>
</g>
<g>
	<g>
		<path d="M-238,414.9h-16.7v3.3h15.2v24.5h-15.2v3.3h16.7c0.8,0,1.5-0.7,1.5-1.6v-27.7C-236.5,415.7-237.1,414.9-238,414.9z"/>
	</g>
</g>
<g>
	<g>
		<path d="M-247.1,429.6c-2.5,0-4.6,2.2-4.6,4.9c0,2.7,2.1,4.9,4.6,4.9s4.6-2.2,4.6-4.9C-242.5,431.8-244.6,429.6-247.1,429.6z
			 M-247.1,436.1c-0.8,0-1.5-0.7-1.5-1.6c0-0.9,0.7-1.6,1.5-1.6s1.5,0.7,1.5,1.6C-245.6,435.4-246.2,436.1-247.1,436.1z"/>
	</g>
</g>
<g>
	<g>
		<path d="M-164.7,398.6h-88.5c-0.8,0-1.5,0.7-1.5,1.6c0,6.3,4.8,11.4,10.7,11.4h70.2c5.9,0,10.7-5.1,10.7-11.4
			C-163.2,399.4-163.8,398.6-164.7,398.6z M-173.8,408.4H-244c-3.7,0-6.8-2.8-7.5-6.5h85.1C-167.1,405.6-170.2,408.4-173.8,408.4z"
			/>
	</g>
</g>
<g>
	<g>
		<path d="M-208.9,356.2c-21.9,0-39.7,19-39.7,42.4v1.6c0,0.9,0.7,1.6,1.5,1.6h76.3c0.8,0,1.5-0.7,1.5-1.6v-1.6
			C-169.3,375.3-187.1,356.2-208.9,356.2z M-245.6,398.6c0-21.6,16.4-39.1,36.6-39.1s36.6,17.6,36.6,39.1H-245.6z"/>
	</g>
</g>
<g>
	<g>
		<path d="M-234,374.8c-1.1,1.3-2.1,2.7-2.9,4.1l2.5,1.8c0.8-1.3,1.7-2.5,2.7-3.7L-234,374.8z"/>
	</g>
</g>
<g>
	<g>
		<path d="M-208.9,362.8c-8.6,0-16.7,3.5-23,9.7l2.1,2.4c5.7-5.7,13.1-8.8,20.9-8.9L-208.9,362.8z"/>
	</g>
</g>
<g>
	<g>
		<rect x="-213.5" y="348.1" width="9.2" height="3.3"/>
	</g>
</g>
<g>
	<g>
		<rect x="-210.5" y="349.7" width="3.1" height="8.2"/>
	</g>
</g>
</svg>
