<?xml version="1.0" encoding="utf-8"?>
<!-- Generator: Adobe Illustrator 19.0.0, SVG Export Plug-In . SVG Version: 6.00 Build 0)  -->
<svg version="1.1" id="Warstwa_1" xmlns="http://www.w3.org/2000/svg" xmlns:xlink="http://www.w3.org/1999/xlink" x="0px" y="0px"
	 viewBox="-255 352 100 90" style="enable-background:new -255 352 100 90;" xml:space="preserve">
<g>
	<g>
		<path d="M-156.5,371c-1.6-4.5-4.4-8.5-8.1-11.7c-3.7-3.2-8.2-5.3-12.9-6.2c-1.8-0.3-3.6-0.5-5.4-0.5c-5.3,0-10.5,1.5-15,4.3
			c-2.7,1.7-5.1,3.8-7,6.3c-2-2.4-4.3-4.6-7-6.2c-4.5-2.8-9.7-4.3-15-4.3c0,0,0,0,0,0c-4.5,0-8.9,1.1-12.9,3.1c-4,2-7.5,5-10,8.6
			c-2.6,3.7-4.2,7.8-4.8,12.2c-0.5,3.9-0.1,8,1.1,12.4c2.3,8.6,7.4,16.4,11.3,21.5c8.5,11,20.1,21,35.5,30.5l1.8,1.1l1.8-1.1
			c19-11.7,32.3-24.1,40.6-37.8c4.8-7.9,7.2-14.9,7.6-21.5C-154.8,377.8-155.3,374.3-156.5,371z M-205,433.9
			c-13.8-8.7-24.2-17.8-31.8-27.7c-3.5-4.6-8.1-11.6-10.1-19.1c-0.9-3.5-1.2-6.8-0.9-9.8c0.4-3.3,1.6-6.3,3.5-9.1
			c1.9-2.7,4.5-4.9,7.5-6.5c3-1.5,6.4-2.4,9.7-2.4c4,0,7.9,1.1,11.3,3.2c3.3,2.1,5.9,5,7.6,8.4l3.1,6.2l3.1-6.2
			c1.7-3.4,4.4-6.3,7.6-8.4c3.4-2.1,7.3-3.2,11.3-3.2c1.4,0,2.8,0.1,4.1,0.4c3.5,0.7,6.9,2.3,9.7,4.7c2.8,2.4,4.9,5.4,6.1,8.8
			c0.9,2.4,1.2,5.1,1.1,7.9c-0.3,5.4-2.5,11.5-6.6,18.4C-176,411.9-188,423.2-205,433.9z"/>
	</g>
</g>
</svg>
