<?xml version="1.0" encoding="utf-8"?>
<!-- Generator: Adobe Illustrator 19.0.0, SVG Export Plug-In . SVG Version: 6.00 Build 0)  -->
<svg version="1.1" id="Warstwa_1" xmlns="http://www.w3.org/2000/svg" xmlns:xlink="http://www.w3.org/1999/xlink" x="0px" y="0px"
	 viewBox="-255 352 100 90" style="enable-background:new -255 352 100 90;" xml:space="preserve">
<g>
	<g>
		<path d="M-157.6,371c-1.6-4.5-4.3-8.5-8-11.7c-3.6-3.2-8-5.3-12.7-6.2c-1.8-0.3-3.6-0.5-5.4-0.5c-5.3,0-10.4,1.5-14.8,4.3
			c-2.7,1.7-5,3.8-6.9,6.3c-1.9-2.4-4.3-4.6-6.9-6.2c-4.4-2.8-9.5-4.3-14.8-4.3c0,0,0,0,0,0c-4.4,0-8.8,1.1-12.7,3.1
			c-3.9,2-7.3,5-9.9,8.6c-2.6,3.7-4.2,7.8-4.7,12.2c-0.5,3.9-0.1,8,1,12.4c2.3,8.6,7.3,16.4,11.1,21.5c8.3,11,19.7,21,34.9,30.5
			l1.8,1.1l1.8-1.1c18.7-11.7,31.7-24.1,39.9-37.8c4.7-7.9,7.1-14.9,7.5-21.5C-156,377.8-156.5,374.3-157.6,371z M-205,433.7
			c-13.6-8.7-23.8-17.8-31.3-27.7c-3.5-4.6-8-11.6-10-19.1c-0.9-3.5-1.2-6.8-0.9-9.8c0.4-3.3,1.6-6.3,3.5-9.1
			c1.9-2.7,4.5-4.9,7.4-6.5c3-1.5,6.3-2.4,9.6-2.4c4,0,7.8,1.1,11.1,3.2c3.2,2.1,5.8,5,7.5,8.4l3.1,6.2l3.1-6.2
			c1.7-3.4,4.3-6.3,7.5-8.4c3.3-2.1,7.2-3.2,11.1-3.2c1.4,0,2.7,0.1,4,0.4c3.5,0.7,6.8,2.3,9.5,4.7c2.7,2.4,4.8,5.4,6,8.8
			c0.9,2.4,1.2,5.1,1.1,7.9c-0.3,5.4-2.4,11.5-6.5,18.4C-176.5,411.7-188.3,423-205,433.7z"/>
	</g>
</g>
<g>
	<g>
		<path d="M-162.5,374.4c-1.4-4.1-3.9-7.9-7.1-10.8c-3.3-2.9-7.2-4.9-11.4-5.8c-1.6-0.3-3.2-0.5-4.8-0.5c-4.7,0-9.3,1.4-13.3,4
			c-2.4,1.6-4.5,3.5-6.2,5.8c-1.7-2.3-3.8-4.2-6.2-5.8c-4-2.6-8.5-4-13.2-4c0,0,0,0,0,0c-3.9,0-7.9,1-11.4,2.9
			c-3.5,1.9-6.6,4.6-8.8,7.9c-2.3,3.4-3.7,7.2-4.2,11.3c-0.4,3.6-0.1,7.4,0.9,11.5c2,7.9,6.6,15.2,10,19.9
			c7.5,10.2,17.7,19.4,31.3,28.2l1.6,1.1l1.6-1.1c16.8-10.9,28.5-22.3,35.8-35c4.2-7.3,6.4-13.8,6.7-19.9
			C-161.1,380.7-161.5,377.4-162.5,374.4z M-205.1,432.5c-12.2-8.1-21.4-16.5-28.1-25.6c-3.1-4.2-7.2-10.7-8.9-17.7
			c-0.8-3.2-1.1-6.3-0.8-9.1c0.3-3,1.4-5.9,3.1-8.4c1.7-2.5,4-4.6,6.7-6c2.7-1.4,5.6-2.2,8.6-2.2c3.5,0,7,1,10,3
			c2.9,1.9,5.2,4.6,6.7,7.8l2.8,5.8l2.7-5.8c1.5-3.2,3.8-5.9,6.7-7.8c3-2,6.4-3,10-3c1.2,0,2.4,0.1,3.6,0.4c3.1,0.6,6.1,2.1,8.5,4.3
			c2.5,2.2,4.3,5,5.4,8.1c0.8,2.3,1.1,4.7,1,7.3c-0.2,5-2.2,10.6-5.8,17C-179.5,412-190,422.5-205.1,432.5z"/>
	</g>
</g>
</svg>
