<?xml version="1.0" encoding="utf-8"?>
<!-- Generator: Adobe Illustrator 19.0.0, SVG Export Plug-In . SVG Version: 6.00 Build 0)  -->
<svg version="1.1" id="Warstwa_1" xmlns="http://www.w3.org/2000/svg" xmlns:xlink="http://www.w3.org/1999/xlink" x="0px" y="0px"
	 viewBox="107 323.9 810 195" style="enable-background:new 107 323.9 810 195;" xml:space="preserve">
<style type="text/css">
	.st0{fill:#DDFFEE;}
	.st1{fill:#50A331;}
	.st2{fill:#B27214;}
	.st3{fill:none;}
	.st4{fill:#FFFFFF;}
	.st5{fill:#333333;}
	.st6{fill:#9AD14B;}
</style>
<path id="XMLID_3_" class="st0" d="M225.4,379.6c0,0.8-0.7,1.2-2.2,1.2c-5.4,0-13.6-0.5-24.7-1.4c-11-0.9-19.3-1.4-24.8-1.4
	c-6.9,0-11,0.3-12.1,0.8c-2.7,1.2-4,4.7-4,10.4c0,6.9,1.7,10.8,5.2,11.7c1.4,0.4,3.6,0.5,6.6,0.5c5,0,12.4-0.3,22.4-0.8
	c9.9-0.5,17.4-0.8,22.4-0.8c2.4,0,3.6,6.4,3.6,19.1c0,11.1-0.4,17.5-1.2,19.3c-0.5,1.3-1.5,2-2.9,2c0.9,0-1.3-0.3-6.8-0.8
	c-7.7-0.7-19.4-1.1-35.1-1.1c-5.1,0-7.9,0-8.6,0.1c-3.7,0.6-5.5,2.1-5.5,4.7c0,10.3,0.4,22.1,1.3,35.4c0.7,12.1,1.1,17.5,1.1,16.2
	c0,1.9-2.3,3-6.8,3.3c1.2-0.1-2-0.1-9.6-0.1c-13.5,0-22.2-0.5-26.1-1.4c-2.1-0.5-3.1-1.6-3.1-3.4c0-8,0.3-20.1,0.8-36.2
	s0.8-28.1,0.8-36.2c0-9.5-0.4-21.5-1.3-36c-1.3-22.3-2-34.3-2.1-36l-0.1-1.3c-0.1-1.8,1-2.7,3.3-2.7c5.3,0,13.4,0.1,24.2,0.3
	c10.8,0.2,18.9,0.3,24.3,0.3c5.8,0,14.5-0.4,26.1-1.3s20.3-1.3,26.1-1.3c3.6,0,5.6,1.5,6.1,4.4c0,3.1,0.1,7.8,0.4,14
	c0.1,1.6,0.6,4.7,1.4,9.2C225,374.4,225.4,377.5,225.4,379.6z"/>
<path id="XMLID_6_" class="st0" d="M382.3,371.6C367.5,355.9,350.2,348,328,348c-22.3,0-40.6,7.2-55.4,22.9
	c-14.5,15.3-21.9,32.5-21.9,55c0,22.4,7.2,41.2,21.7,56.5c14.7,15.6,33.3,23.4,55.6,23.4c22.5,0,41-7.7,55.7-23.2
	c14.4-15.2,18.9-33.1,18.9-55.7C402.7,404.5,396.9,387,382.3,371.6z M327.8,477.3c-16.2-0.2-29.3-13.5-29.1-29.7
	c0.2-16.3,13.6-42.1,29.8-42s29.1,26.3,29,42.6C357.3,464.4,344,477.4,327.8,477.3z"/>
<path id="XMLID_11_" class="st0" d="M717.2,423.4c0,21.2-6.8,39.7-20.5,55.3c-12.1,13.9-29,21.3-50.8,22c-4.2,0.1-15.7,0.2-34.6,0.2
	c-3.5,0-8.9-0.1-16-0.3c-7.1-0.2-12.4-0.3-16-0.3c-2.1,0-3.1-0.8-3.1-2.5c0-7.9,0.3-19.9,0.9-35.8c0.6-15.9,0.9-27.9,0.9-35.8
	c0-8.3-0.3-20.8-0.9-37.3c-0.6-16.6-0.9-29-0.9-37.2c0-1.5,1-2.4,3.1-2.7c5.1-0.6,13.5-0.9,25.3-0.9c22.3,0,36.7,0.3,43.3,1
	c17.1,1.7,30.5,6.1,40.2,13c9.1,6.5,16.3,15.6,21.6,27.3C714.7,400.4,717.2,411.7,717.2,423.4z M675.7,423.4
	c0-12.2-3.7-22.2-10.9-29.9c-7.4-8-17.1-12-29.3-12c-11.1,0-16.7,1.5-16.7,4.4c0,4.3-0.1,10.7-0.2,19.2c-0.1,8.6-0.2,15-0.2,19.2
	c0,4.2,0.1,10.5,0.2,18.9s0.2,14.8,0.2,19c0,3.1,5.8,4.7,17.3,4.7c12.5,0,22.3-4.2,29.5-12.5C672.4,446.7,675.7,436.3,675.7,423.4z"
	/>
<path id="XMLID_16_" class="st0" d="M911.2,466.6c0,3.1-0.6,8.8-1.8,17.1c-1.3,9-2.5,14.4-3.5,16.2c-0.9,1.4-2.1,2.1-3.6,2.1
	c-0.7,0-1.7-0.1-3.3-0.3c-5.3-0.7-20.7-1.1-46.2-1.1c-5.6,0-13.8,0-24.8-0.1s-19.2-0.1-24.7-0.1c-2.4,0-3.6-1-3.6-3.1
	c0-8.1,0.5-20.3,1.4-36.5c0.9-16.2,1.4-28.4,1.4-36.5c0-8.2-0.4-23.6-1.3-46.1c-0.2-5.8-0.6-14.4-1.2-25.9l-0.1-1.5
	c-0.1-1.7,0.8-2.5,2.7-2.5c5.3,0,13.4,0.1,24.1,0.4c10.7,0.3,18.8,0.4,24.1,0.4s13.2-0.1,23.8-0.4c10.6-0.3,18.6-0.4,23.8-0.4
	c3.8,0,5.9,1.4,6.5,4.2c0.4,1.7,0.9,6.7,1.7,15.1c0.8,8.4,1.1,13.5,1.1,15.3c0,1.5-0.7,2.3-2.2,2.3c-0.4,0-1.2,0-2.3-0.1
	c-19.2-1.6-36.5-2.4-51.8-2.4c-3.8,0-6.2,0.9-7,2.7c-0.4,0.9-0.5,3.6-0.5,8.3c0,4.9,0.7,8.2,2.2,9.8c1.2,1.4,3.6,2.1,7,2.1
	c0.7,0,2.1-0.1,4.2-0.2c2.1-0.1,3.8-0.2,5.2-0.2c9.1,0,18.3-0.3,27.6-0.8c0.8-0.1,2.8-0.3,6-0.5c2.5-0.3,4.4-0.4,5.9-0.4
	c1.7,0,2.6,0.8,2.6,2.5c0-1.5-0.7,4-2,16.6c-0.6,5.8-0.9,11.6-0.9,17.3c0,1.4-1,2.2-3.1,2.2l-9.8-1.1c-4.1-0.4-13.5-0.7-28.2-0.7
	h-11.5c-3,0-4.7,0.7-5.2,2.2c-0.1,0.4-0.1,2.6-0.1,6.7c0,5.5,0.4,9,1.1,10.6c1.2,2.7,5.9,4.4,13.9,4.9c-0.1,0,5.1,0,15.8,0
	c3.8,0,9.5-0.3,17.1-1c7.6-0.7,13.2-1,17-1C910.4,462.7,911.2,464,911.2,466.6z"/>
<g id="XMLID_28_">
	<path id="XMLID_43_" class="st1" d="M541.3,394.2c9.6,15.2,16,32.7,17.1,47.2c2.8,34.6-22.9,64.9-57.5,67.8
		c-34.6,2.8-64.9-22.9-67.7-57.5c-1.2-14.5,2.3-32.8,9.2-49.4c4.2-10,7.7-20.3,10.5-30.9c5-19.2,17.4-38.9,33.4-40.2
		c16.1-1.3,31.5,16,39.6,34.2C530.4,375.4,535.5,385,541.3,394.2z M525.4,446.8c-1.3-16.2-16.3-34.1-32.5-32.8
		c-16.2,1.3-27.4,21.4-26.1,37.6c1.3,16.2,15.5,28.2,31.7,26.9C514.7,477.2,526.7,463,525.4,446.8z"/>
	<path id="XMLID_42_" class="st2" d="M492.6,407.1c16.2-1.3,31.4,23.5,32.8,39.7c1.3,16.2-10.7,30.4-26.9,31.7
		c-16.2,1.3-30.4-10.7-31.7-26.9C465.5,435.4,476.5,408.4,492.6,407.1z"/>
	<path id="XMLID_49_" class="st3" d="M357.4,448.1c-0.2,16.2-13.5,29.3-29.7,29.1c-16.2-0.2-29.3-13.5-29.1-29.7
		c0.2-16.3,13.6-42.1,29.8-42C344.6,405.6,357.6,431.9,357.4,448.1z"/>
	<path id="XMLID_26_" class="st4" d="M514.5,458.5"/>
	<g id="XMLID_32_">
		<path id="XMLID_37_" class="st5" d="M492.4,403.7c-8.4,1.4-16.4,7.3-22.2,18.5c-4.9,9.5-7.4,20.8-6.7,29.7
			c1.5,18,17.3,31.5,35.3,30c18-1.5,31.5-17.3,30-35.4c-0.7-8.8-5.1-19.6-11.5-28.2C510.9,407.7,500,402.4,492.4,403.7z
			 M498.2,475.1c-14.3,1.2-26.9-9.5-28.1-23.8c-1.2-14.6,8.9-39.8,22.8-40.9c13.8-1.1,27.9,22,29.1,36.6
			C523.2,461.4,512.5,474,498.2,475.1z"/>
		<path id="XMLID_34_" class="st5" d="M544.2,392.4c-5.7-9.1-10.8-18.7-15.1-28.3c-8-17.8-22.9-35.1-39.3-36.2c-0.2,0-0.4,0-0.5,0
			l-2.9,0.1c-0.2,0-0.4,0-0.5,0l-2.8,0.4c-0.2,0-0.3,0.1-0.5,0.1c-16,3.8-27.9,23.3-32.8,42.1c-2.7,10.2-6.1,20.5-10.3,30.4
			c-8.1,15.7-10.7,36.1-9.5,51c3,36.4,34.8,63.4,71.4,60.6c36.4-2.8,63.5-35,60.5-71.4C560.6,426.3,555.3,408.2,544.2,392.4z
			 M500.8,505.8c-32.7,2.7-61.4-21.7-64.1-54.4c-1.1-13.8,2.2-31.7,9-47.8c4.3-10.3,7.9-20.8,10.6-31.3c4.5-17.3,16-36.5,30.5-37.7
			s28.9,15.9,36.2,32.2c4.4,9.9,9.7,19.8,15.6,29.2c9.3,14.8,15.5,31.9,16.6,45.7C557.8,474.4,533.4,503.2,500.8,505.8z"/>
	</g>
	<path id="XMLID_31_" class="st6" d="M493.8,420.8"/>
</g>
<g id="XMLID_18_">
	<g id="XMLID_20_">
		<path id="XMLID_9_" class="st0" d="M783.1,346.3c-1.7,0-2.5,0.1-3.8,1.2c-1.2,1.1-1.9,2.5-1.9,4v37.4c0,1.6-0.6,2.9-1.9,4
			c-1.2,1.1-2.7,0.9-4.4,0.9s-3.2,0.2-4.4-0.9c-1.2-1.1-1.9-2.5-1.9-4v-37.3c0-1.6-0.6-2.9-1.9-4c-1.2-1.1-3.4-1.2-5.1-1.2
			c-1.7,0-2.5,0.1-3.8,1.2c-1.2,1.1-1.9,2.5-1.9,4v37.3c0,1.6-0.6,2.9-1.9,4c-1.2,1.1-2.7,0.9-4.4,0.9s-3.2,0.2-4.4-0.9
			c-1.2-1.1-1.9-2.5-1.9-4v-37.3c0-1.6-0.6-2.9-1.9-4c-1.2-1.1-3.4-1.2-5.1-1.2s-2.5,0.1-3.8,1.2c-1.2,1.1-1.9,2.5-1.9,4v57.5
			c0,3.7,1.2,7,3.5,10s5.4,7.5,9.1,8.7v67.6c0,3.1,1.2,7.4,3.7,9.7c2.5,2.3,5.4,1.8,8.9,1.8h12.6c3.4,0,6.4,0.4,8.9-1.8
			c2.5-2.3,3.7-6.6,3.7-9.7v-67.6c3.7-1.2,6.8-5.7,9.1-8.7s3.5-6.3,3.5-10v-57.5c0-1.6-0.6-2.9-1.9-4
			C786.9,346.4,784.8,346.3,783.1,346.3z"/>
	</g>
</g>
<path id="XMLID_1_" class="st6" d="M313.3,416.7"/>
<path id="XMLID_19_" class="st4" d="M331.5,465.7"/>
</svg>
