<?xml version="1.0" encoding="utf-8"?>
<!-- Generator: Adobe Illustrator 19.0.0, SVG Export Plug-In . SVG Version: 6.00 Build 0)  -->
<svg version="1.1" xmlns="http://www.w3.org/2000/svg" xmlns:xlink="http://www.w3.org/1999/xlink" x="0px" y="0px"
	 viewBox="0 0 1280 800" style="enable-background:new 0 0 1280 800;" xml:space="preserve">
<style type="text/css">
	.st0{fill:#E2F0D9;}
	.st1{fill:#9AD14B;}
	.st2{fill:#B27214;}
	.st3{fill:none;}
	.st4{fill:#FFFFFF;}
	.st5{fill:#333333;}
</style>
<g id="Warstwa_1">
	<g id="XMLID_2_">
		<path id="XMLID_3_" class="st0" d="M305.4,320.7c0,0.8-0.7,1.2-2.2,1.2c-5.4,0-13.6-0.5-24.7-1.4c-11-0.9-19.3-1.4-24.8-1.4
			c-6.9,0-11,0.3-12.1,0.8c-2.7,1.2-4,4.7-4,10.4c0,6.9,1.7,10.8,5.2,11.7c1.4,0.4,3.6,0.5,6.6,0.5c5,0,12.4-0.3,22.4-0.8
			c9.9-0.5,17.4-0.8,22.4-0.8c2.4,0,3.6,6.4,3.6,19.1c0,11.1-0.4,17.5-1.2,19.3c-0.5,1.3-1.5,2-2.9,2c0.9,0-1.3-0.3-6.8-0.8
			c-7.7-0.7-19.4-1.1-35.1-1.1c-5.1,0-7.9,0-8.6,0.1c-3.7,0.6-5.5,2.1-5.5,4.7c0,10.3,0.4,22.1,1.3,35.4c0.7,12.1,1.1,17.5,1.1,16.2
			c0,1.9-2.3,3-6.8,3.3c1.2-0.1-2-0.1-9.6-0.1c-13.5,0-22.2-0.5-26.1-1.4c-2.1-0.5-3.1-1.6-3.1-3.4c0-8,0.3-20.1,0.8-36.2
			c0.5-16.1,0.8-28.1,0.8-36.2c0-9.5-0.4-21.5-1.3-36c-1.3-22.3-2-34.3-2.1-36l-0.1-1.3c-0.1-1.8,1-2.7,3.3-2.7
			c5.3,0,13.4,0.1,24.2,0.3c10.8,0.2,18.9,0.3,24.3,0.3c5.8,0,14.5-0.4,26.1-1.3s20.3-1.3,26.1-1.3c3.6,0,5.6,1.5,6.1,4.4
			c0,3.1,0.1,7.8,0.4,14c0.1,1.6,0.6,4.7,1.4,9.2C305,315.5,305.4,318.6,305.4,320.7z"/>
		<path id="XMLID_6_" class="st0" d="M462.3,312.7c-14.8-15.7-32.1-23.6-54.3-23.6c-22.3,0-40.6,7.2-55.4,22.9
			c-14.5,15.3-21.9,32.5-21.9,55c0,22.4,7.2,41.2,21.7,56.5c14.7,15.6,33.3,23.4,55.6,23.4c22.5,0,41-7.7,55.7-23.2
			c14.4-15.2,18.9-33.1,18.9-55.7C482.7,345.6,476.9,328.1,462.3,312.7z M407.8,418.4c-16.2-0.2-29.3-13.5-29.1-29.7
			c0.2-16.3,13.6-42.1,29.8-42s29.1,26.3,29,42.6C437.3,405.5,424,418.5,407.8,418.4z"/>
		<path id="XMLID_11_" class="st0" d="M797.2,364.5c0,21.2-6.8,39.7-20.5,55.3c-12.1,13.9-29,21.3-50.8,22
			c-4.2,0.1-15.7,0.2-34.6,0.2c-3.5,0-8.9-0.1-16-0.3c-7.1-0.2-12.4-0.3-16-0.3c-2.1,0-3.1-0.8-3.1-2.5c0-7.9,0.3-19.9,0.9-35.8
			c0.6-15.9,0.9-27.9,0.9-35.8c0-8.3-0.3-20.8-0.9-37.3c-0.6-16.6-0.9-29-0.9-37.2c0-1.5,1-2.4,3.1-2.7c5.1-0.6,13.5-0.9,25.3-0.9
			c22.3,0,36.7,0.3,43.3,1c17.1,1.7,30.5,6.1,40.2,13c9.1,6.5,16.3,15.6,21.6,27.3C794.7,341.5,797.2,352.8,797.2,364.5z
			 M755.7,364.5c0-12.2-3.7-22.2-10.9-29.9c-7.4-8-17.1-12-29.3-12c-11.1,0-16.7,1.5-16.7,4.4c0,4.3-0.1,10.7-0.2,19.2
			c-0.1,8.6-0.2,15-0.2,19.2c0,4.2,0.1,10.5,0.2,18.9c0.1,8.4,0.2,14.8,0.2,19c0,3.1,5.8,4.7,17.3,4.7c12.5,0,22.3-4.2,29.5-12.5
			C752.4,387.8,755.7,377.4,755.7,364.5z"/>
		<path id="XMLID_16_" class="st0" d="M991.2,407.7c0,3.1-0.6,8.8-1.8,17.1c-1.3,9-2.5,14.4-3.5,16.2c-0.9,1.4-2.1,2.1-3.6,2.1
			c-0.7,0-1.7-0.1-3.3-0.3c-5.3-0.7-20.7-1.1-46.2-1.1c-5.6,0-13.8,0-24.8-0.1c-11-0.1-19.2-0.1-24.7-0.1c-2.4,0-3.6-1-3.6-3.1
			c0-8.1,0.5-20.3,1.4-36.5c0.9-16.2,1.4-28.4,1.4-36.5c0-8.2-0.4-23.6-1.3-46.1c-0.2-5.8-0.6-14.4-1.2-25.9l-0.1-1.5
			c-0.1-1.7,0.8-2.5,2.7-2.5c5.3,0,13.4,0.1,24.1,0.4c10.7,0.3,18.8,0.4,24.1,0.4c5.3,0,13.2-0.1,23.8-0.4
			c10.6-0.3,18.6-0.4,23.8-0.4c3.8,0,5.9,1.4,6.5,4.2c0.4,1.7,0.9,6.7,1.7,15.1c0.8,8.4,1.1,13.5,1.1,15.3c0,1.5-0.7,2.3-2.2,2.3
			c-0.4,0-1.2,0-2.3-0.1c-19.2-1.6-36.5-2.4-51.8-2.4c-3.8,0-6.2,0.9-7,2.7c-0.4,0.9-0.5,3.6-0.5,8.3c0,4.9,0.7,8.2,2.2,9.8
			c1.2,1.4,3.6,2.1,7,2.1c0.7,0,2.1-0.1,4.2-0.2c2.1-0.1,3.8-0.2,5.2-0.2c9.1,0,18.3-0.3,27.6-0.8c0.8-0.1,2.8-0.3,6-0.5
			c2.5-0.3,4.4-0.4,5.9-0.4c1.7,0,2.6,0.8,2.6,2.5c0-1.5-0.7,4-2,16.6c-0.6,5.8-0.9,11.6-0.9,17.3c0,1.4-1,2.2-3.1,2.2l-9.8-1.1
			c-4.1-0.4-13.5-0.7-28.2-0.7h-11.5c-3,0-4.7,0.7-5.2,2.2c-0.1,0.4-0.1,2.6-0.1,6.7c0,5.5,0.4,9,1.1,10.6c1.2,2.7,5.9,4.4,13.9,4.9
			c-0.1,0,5.1,0,15.8,0c3.8,0,9.5-0.3,17.1-1c7.6-0.7,13.2-1,17-1C990.4,403.8,991.2,405.1,991.2,407.7z"/>
		<g id="XMLID_7_">
			<path id="XMLID_14_" class="st0" d="M858,361.3c0,8.5,0.2,21.4,0.7,38.5c0.4,17.1,0.7,30,0.7,38.5c0,1.4-0.3,2.3-1,2.7
				c-0.1,0.1-1.1,0.2-2.8,0.4c-4.7,0.6-11,0.9-18.9,0.9c-10.6,0-17.3-0.3-20.2-0.9c-2.1-0.4-3.1-1.6-3.1-3.4c0,1.2,0.3-5.2,1-19.1
				c1.3-29.3,2-48.5,2-57.7c0-7.7-0.3-19.3-0.8-34.8c-0.5-15.5-0.8-27.1-0.8-34.8c0-1.6,0.8-2.4,2.5-2.4c2.2,0,5.6,0.1,10.1,0.3
				c4.5,0.2,7.9,0.3,10.1,0.3c2.2,0,5.5-0.1,9.9-0.3c4.4-0.2,7.7-0.3,9.9-0.3c2.1,0,3.1,0.8,3.1,2.4c0,7.7-0.4,19.3-1.2,34.8
				C858.5,342,858,353.6,858,361.3z"/>
			<path id="XMLID_46_" class="st0" d="M856.2,293.9H849c-0.9,0-1.5-0.7-1.5-1.5V259c0-0.9,0.7-1.5,1.5-1.5h7.2
				c0.9,0,1.5,0.7,1.5,1.5v33.3C857.7,293.2,857,293.9,856.2,293.9z"/>
			<path id="XMLID_5_" class="st0" d="M824.9,293.9h-7.2c-0.9,0-1.5-0.7-1.5-1.5V259c0-0.9,0.7-1.5,1.5-1.5h7.2
				c0.9,0,1.5,0.7,1.5,1.5v33.3C826.5,293.2,825.8,293.9,824.9,293.9z"/>
			<path id="XMLID_41_" class="st0" d="M841.3,293.9h-7.2c-0.9,0-1.5-0.7-1.5-1.5V259c0-0.9,0.7-1.5,1.5-1.5h7.2
				c0.9,0,1.5,0.7,1.5,1.5v33.3C842.8,293.2,842.1,293.9,841.3,293.9z"/>
		</g>
	</g>
	<g id="XMLID_28_">
		<path id="XMLID_43_" class="st1" d="M621.3,335.3c9.6,15.2,16,32.7,17.1,47.2c2.8,34.6-22.9,64.9-57.5,67.8
			c-34.6,2.8-64.9-22.9-67.7-57.5c-1.2-14.5,2.3-32.8,9.2-49.4c4.2-10,7.7-20.3,10.5-30.9c5-19.2,17.4-38.9,33.4-40.2
			c16.1-1.3,31.5,16,39.6,34.2C610.4,316.5,615.5,326.1,621.3,335.3z M605.4,387.9c-1.3-16.2-16.3-34.1-32.5-32.8
			s-27.4,21.4-26.1,37.6s15.5,28.2,31.7,26.9C594.7,418.3,606.7,404.1,605.4,387.9z"/>
		<path id="XMLID_42_" class="st2" d="M572.6,348.2c16.2-1.3,31.4,23.5,32.8,39.7c1.3,16.2-10.7,30.4-26.9,31.7
			s-30.4-10.7-31.7-26.9S556.5,349.5,572.6,348.2z"/>
		<path id="XMLID_49_" class="st3" d="M437.4,389.2c-0.2,16.2-13.5,29.3-29.7,29.1c-16.2-0.2-29.3-13.5-29.1-29.7
			c0.2-16.3,13.6-42.1,29.8-42S437.6,373,437.4,389.2z"/>
		<path id="XMLID_26_" class="st4" d="M594.5,399.6"/>
		<g id="XMLID_32_">
			<path id="XMLID_37_" class="st5" d="M572.4,344.8c-8.4,1.4-16.4,7.3-22.2,18.5c-4.9,9.5-7.4,20.8-6.7,29.7
				c1.5,18,17.3,31.5,35.3,30c18-1.5,31.5-17.3,30-35.4c-0.7-8.8-5.1-19.6-11.5-28.2C590.9,348.8,580,343.5,572.4,344.8z
				 M578.2,416.2c-14.3,1.2-26.9-9.5-28.1-23.8c-1.2-14.6,8.9-39.8,22.8-40.9c13.8-1.1,27.9,22,29.1,36.6
				C603.2,402.5,592.5,415.1,578.2,416.2z"/>
			<path id="XMLID_34_" class="st5" d="M624.2,333.5c-5.7-9.1-10.8-18.7-15.1-28.3c-7.9-17.8-22.8-35.1-39.3-36.2
				c-0.2,0-0.4,0-0.5,0l-2.9,0.1c-0.2,0-0.4,0-0.5,0l-2.8,0.4c-0.2,0-0.3,0.1-0.5,0.1c-16,3.8-27.9,23.3-32.8,42.1
				c-2.7,10.2-6.1,20.5-10.3,30.4c-8.1,15.7-10.7,36.1-9.5,51c3,36.4,34.8,63.4,71.4,60.6c36.4-2.8,63.5-35,60.5-71.4
				C640.6,367.4,635.3,349.3,624.2,333.5z M580.8,446.9c-32.7,2.7-61.4-21.7-64.1-54.4c-1.1-13.8,2.2-31.7,9-47.8
				c4.3-10.3,7.9-20.8,10.6-31.3c4.5-17.3,16-36.5,30.5-37.7c14.5-1.2,28.9,15.9,36.2,32.2c4.4,9.9,9.7,19.8,15.6,29.2
				c9.3,14.8,15.5,31.9,16.6,45.7C637.8,415.5,613.4,444.3,580.8,446.9z"/>
		</g>
		<path id="XMLID_31_" class="st1" d="M573.8,361.9"/>
	</g>
	<line id="XMLID_23_" class="st3" x1="552.3" y1="259.7" x2="560" y2="259.1"/>
	<path id="XMLID_33_" class="st5" d="M555.9,260.4"/>
</g>
<g id="F">
</g>
<g id="Warstwa_3">
	<path id="XMLID_1_" class="st1" d="M393.3,357.8"/>
	<path id="XMLID_19_" class="st4" d="M411.5,406.8"/>
</g>
</svg>
