<?xml version="1.0" ?><!DOCTYPE svg  PUBLIC '-//W3C//DTD SVG 20010904//EN'  'http://www.w3.org/TR/2001/REC-SVG-20010904/DTD/svg10.dtd'><svg height="512.000000pt" preserveAspectRatio="xMidYMid meet" version="1.0" viewBox="0 0 512.000000 512.000000" width="512.000000pt" xmlns="http://www.w3.org/2000/svg"><g fill="#000000" stroke="none" transform="translate(0.000000,512.000000) scale(0.100000,-0.100000)"><path d="M2365 3949 c-290 -28 -606 -128 -835 -267 -88 -53 -95 -59 -98 -92 -2 -28 99 -260 536 -1220 450 -991 543 -1187 565 -1200 61 -34 36 -82 619 1200 437 960 538 1192 536 1220 -3 33 -10 39 -98 92 -342 206 -803 307 -1225 267z m360 -129 c109 -10 234 -31 307 -50 l37 -10 -15 -42 c-29 -82 -10 -138 47 -138 34 0 62 33 79 95 7 25 14 45 16 45 15 0 177 -71 255 -112 l97 -50 -50 -106 c-27 -59 -50 -108 -52 -109 -1 -2 -46 15 -99 37 -215 88 -495 150 -674 150 l-52 0 -3 57 c-3 51 -6 59 -30 73 -25 13 -31 13 -55 0 -25 -14 -28 -22 -31 -73 l-3 -57 -52 0 c-179 0 -459 -62 -674 -150 -53 -22 -98 -39 -99 -37 -2 1 -25 50 -52 109 l-50 106 97 50 c78 41 240 112 255 112 2 0 9 -20 16 -45 17 -61 45 -95 77 -95 59 0 78 55 49 138 l-15 42 37 10 c187 50 430 69 637 50z m100 -435 c119 -17 207 -36 318 -71 119 -37 249 -95 244 -108 -7 -17 -400 -881 -402 -884 -1 -1 -23 7 -48 18 -115 51 -226 32 -312 -53 -140 -141 -102 -374 74 -457 28 -13 50 -27 49 -30 -30 -72 -183 -400 -188 -400 -3 0 -94 194 -202 432 l-197 432 28 17 c46 28 109 108 127 161 21 65 16 197 -10 248 -36 69 -85 118 -151 151 -54 26 -75 31 -137 31 -40 0 -85 -5 -99 -10 -25 -10 -26 -9 -105 165 -43 96 -80 179 -82 183 -7 18 250 112 401 146 192 44 497 57 692 29z m-760 -650 c109 -24 167 -163 114 -272 -19 -39 -63 -82 -74 -72 -5 5 -155 337 -155 343 0 6 51 13 70 10 8 -1 29 -5 45 -9z m810 -510 c20 -8 38 -21 41 -28 3 -8 -20 -71 -51 -140 l-57 -125 -31 9 c-111 32 -142 175 -55 256 46 43 96 52 153 28z"/><path d="M2700 3211 c-82 -25 -168 -110 -196 -193 -34 -104 -8 -227 67 -312 79 -91 236 -119 351 -63 101 49 158 137 166 253 7 103 -16 163 -87 235 -38 38 -72 61 -105 72 -51 17 -151 21 -196 8z m174 -145 c133 -78 105 -276 -44 -316 -75 -20 -166 25 -196 97 -64 152 100 301 240 219z"/></g></svg>