<?xml version="1.0" encoding="utf-8"?>
<!-- Generator: Adobe Illustrator 19.0.0, SVG Export Plug-In . SVG Version: 6.00 Build 0)  -->
<svg version="1.1" id="Capa_1" xmlns="http://www.w3.org/2000/svg" xmlns:xlink="http://www.w3.org/1999/xlink" x="0px" y="0px"
	 viewBox="6 -56 512 512" style="enable-background:new 6 -56 512 512;" xml:space="preserve">
<g>
	<g>
		<path d="M511.9,257.1c-17.9-63.3-48-121.7-89.5-173.6C381,31.6,330.3-11.2,271.6-43.7c-6.1-3.4-12.6-5.4-19.1-6.2
			c-20.2-2.5-40.9,6.8-51.5,25.1c-7.2,12.3-8.4,26.3-4.7,38.9L11.2,384.5c-1.6,3.2-1.2,7,1.1,9.8c2.3,2.8,5.9,4.1,9.5,3.3
			l407.8-87.8c12.5,9.7,29.5,13.7,46.1,9.3C503.3,311.8,519.5,284,511.9,257.1z M98.6,251.9c0.9,0.1,1.7,0.3,2.5,0.5
			c6.2,1.6,11.5,5.5,14.8,10.9c3.3,5.4,4.6,11.9,2.6,17.8c-7.5,21.8-16.9,20.8-29.4,16.8c-3.9-1.2-7.6-3-10.5-5.7L98.6,251.9z
			 M370.3,303.7l-43.2,9.3c-4.2-5.6-5.7-12.9-3.9-19.8c1.6-6.1,9.3-8.3,11.1-14.3c2.4-7.9,12.1-4,18.3-2.5
			c6.2,1.6,11.5,5.5,14.7,10.9C370.5,292.3,371.5,298,370.3,303.7z M389.7,299.5c0.1-7.5-2-14.9-6-21.6
			c-5.8-9.7-15.2-16.6-26.3-19.4c-1.9-0.5-3.8-0.8-5.6-1.1c-9.4-1.1-18.8,0.7-27,5.4c-9.9,5.7-17,14.8-19.9,25.6
			c-2.6,9.7-1.5,19.8,2.8,28.6l-122.1,26.3l-3.1-11c-1-3.7-4.3-6.3-8-6.7c-1.2-0.1-2.4-0.1-3.7,0.3c-5,1.3-8,6.4-6.6,11.3l2.9,10.1
			l-130.3,28l33.1-66.2c4.3,3,9.1,5.2,14.3,6.5c23,5.9,46.6-7.6,52.6-30c2.9-10.8,1.3-22.2-4.6-31.8c-5.6-9.3-14.5-16.1-25.1-19.1
			l25.5-50.9l19.5,18.7c3.7,3.6,9.7,3.6,13.4-0.1c3.7-3.6,3.6-9.5-0.1-13.1l-24-23.1l66.2-132.5c3.6,4,8,7.4,13,10.2
			c7.2,3.5,29.5,15.7,58.6,44.4c23.4,12.6,51.1,40,72.9,71.4c22.2,32.2,42.3,61.6,60,123.9c1,3.5,2.4,6.9,4.1,10L389.7,299.5z
			 M490.5,286.3c-4.3,7.4-11.4,12.8-19.8,15c-8.5,2.3-17.3,1.2-25-3.1c-7.6-4.2-13.1-11.1-15.5-19.4c-15-52.8-40.1-101.6-74.6-144.8
			C321,90.8,278.7,55.1,229.8,28c-15.8-8.7-21.3-28.3-12.4-43.7c8.9-15.4,29.1-20.7,44.8-12C376.5,35.7,458.7,138.6,493.6,262
			C495.9,270.2,494.8,278.9,490.5,286.3z"/>
	</g>
</g>
<g>
	<g>
		<path d="M367.9,109.5c0,0,0.1,0.2,0.1,0.2c2.3,4.6,12.8,9.7,17.4,7.4c4.7-2.3,1.8-11.1-0.5-15.7c-1.5-2.9-4.3-4.8-7.4-5.1
			c-1.7-0.2-3.6,0-5.3,0.8C367.6,99.4,365.6,104.9,367.9,109.5z"/>
	</g>
</g>
<g>
	<g>
		<path d="M409.8,162.9c7.2,16.8,10.7,34.1,15.7,51.6c1.4,4.9,6.6,7.8,11.7,6.5c5-1.3,8-6.4,6.6-11.3c-5.2-18.3-11.6-36.4-19.1-53.9
			c-1.4-3.2-4.3-5.2-7.6-5.6c-1.6-0.2-3.2,0-4.8,0.6C407.4,152.7,407.8,158.2,409.8,162.9z"/>
	</g>
</g>
<g>
	<g>
		<path d="M211.6,307.7c1.8,0.5,3.7,0.8,5.6,1.1c21.4,2.6,41.6-10.7,47-31c6-22.4-7.9-45.4-30.9-51.3c-1.8-0.5-3.7-0.8-5.6-1.1
			c-21.4-2.6-41.6,10.7-47,31C174.7,278.8,188.6,301.8,211.6,307.7z M199,261.1c1.7-14.6,14.3-18.9,26.3-17.4
			c1.1,0.1,2.1,0.3,3.1,0.6c12.9,3.3,20.6,16.2,17.3,28.7c-3,11.4-14.3,18.9-26.3,17.4c-1.1-0.1-2.1-0.3-3.1-0.6
			C203.5,286.5,195.7,273.7,199,261.1z"/>
	</g>
</g>
<g>
	<g>
		<path d="M212.4,164.6c1.8,0.5,3.7,0.8,5.6,1.1c21.4,2.6,41.6-10.7,47-31c2.9-10.9,1.3-22.2-4.6-31.8c-5.8-9.7-15.2-16.6-26.3-19.4
			c-1.8-0.5-3.7-0.8-5.6-1c-21.4-2.6-41.6,10.7-47,31C175.5,135.7,189.4,158.7,212.4,164.6z M197.9,120.2
			c3-11.4,14.3-18.9,26.3-17.4c1.1,0.1,2.1,0.3,3.1,0.6c6.2,1.6,11.5,5.5,14.8,10.9s4.2,11.8,2.6,17.8c-3,11.4-14.3,18.9-26.3,17.4
			c-1.1-0.1-2.1-0.3-3.1-0.6C202.3,145.6,194.5,132.7,197.9,120.2z"/>
	</g>
</g>
<g>
	<g>
		<path d="M262.9,220.3l28.4,7.3c5.1,1.3,10.2-1.7,11.6-6.6c1.3-4.9-1.7-10-6.8-11.3l-28.4-7.3c-0.4-0.1-0.8-0.2-1.2-0.2
			c-4.6-0.6-9.1,2.3-10.3,6.8C254.8,213.9,257.9,219,262.9,220.3z"/>
	</g>
</g>
<g>
	<g>
		<path d="M300.3,148.8l0.1,19.2c0,5.1,4.3,9.2,9.5,9.2c5.2,0,9.4-4.2,9.4-9.3l-0.1-19.2c0-4.7-3.6-8.5-8.3-9.1
			c-0.4-0.1-0.8-0.1-1.2-0.1C304.5,139.5,300.3,143.7,300.3,148.8z"/>
	</g>
</g>
<g>
	<g>
		<path d="M321.4,242.7c0,0,0.1,0.2,0.1,0.2c2.3,4.6,8,6.4,12.7,4.1c4.7-2.3,6.6-7.8,4.2-12.4c-1.5-2.9-4.3-4.8-7.4-5.1
			c-1.7-0.2-3.6,0-5.3,0.8C321.1,232.6,319.1,238.1,321.4,242.7z"/>
	</g>
</g>
<path d="M283.9,84.9"/>
</svg>
