<?xml version="1.0" encoding="utf-8"?>
<!-- Generator: Adobe Illustrator 19.0.0, SVG Export Plug-In . SVG Version: 6.00 Build 0)  -->
<svg version="1.1"
	 id="Warstwa_1" xmlns:cc="http://creativecommons.org/ns#" xmlns:inkscape="http://www.inkscape.org/namespaces/inkscape" xmlns:sodipodi="http://sodipodi.sourceforge.net/DTD/sodipodi-0.dtd" xmlns:svg="http://www.w3.org/2000/svg" xmlns:rdf="http://www.w3.org/1999/02/22-rdf-syntax-ns#" xmlns:dc="http://purl.org/dc/elements/1.1/"
	 xmlns="http://www.w3.org/2000/svg" xmlns:xlink="http://www.w3.org/1999/xlink" x="0px" y="0px" viewBox="-255 347 100 100"
	 style="enable-background:new -255 347 100 100;" xml:space="preserve">
<path d="M-219.6,421.1c-0.2,0.3-0.5,0.4-0.8,0.4s-0.6-0.1-0.8-0.4l-2-3.7v7.5c0,0.5-0.6,0.7-1.1,0.7c-0.6,0-1.1-0.2-1.1-0.7v-10.8
	c0-0.8,0.6-1.1,1.1-1.1c0.8,0,1.2,0.2,1.8,1.2l2.2,3.9l2.2-3.9c0.6-1,1-1.2,1.8-1.2c0.6,0,1.1,0.3,1.1,1.1v10.8
	c0,0.5-0.6,0.7-1.1,0.7c-0.6,0-1.1-0.2-1.1-0.7v-7.4L-219.6,421.1z"/>
<path d="M-208.9,418.4h2.7c0.5,0,0.7,0.4,0.7,0.9c0,0.4-0.2,0.9-0.7,0.9h-2.7v3.5h5c0.5,0,0.7,0.5,0.7,1c0,0.5-0.2,1-0.7,1h-6.3
	c-0.5,0-1-0.2-1-0.7v-11.2c0-0.5,0.5-0.7,1-0.7h6.3c0.5,0,0.7,0.5,0.7,1c0,0.5-0.3,1-0.7,1h-5V418.4z"/>
<path d="M-193.9,424.9l-3.8-6.9v6.9c0,0.5-0.6,0.7-1.1,0.7c-0.6,0-1.1-0.2-1.1-0.7v-11.2c0-0.5,0.6-0.7,1.1-0.7
	c0.8,0,1.2,0.2,1.7,1.2l3.4,6.4v-6.9c0-0.5,0.6-0.7,1.1-0.7c0.6,0,1.1,0.2,1.1,0.7v11.2c0,0.5-0.6,0.7-1.1,0.7
	C-193.1,425.6-193.6,425.5-193.9,424.9z"/>
<path d="M-181.2,413.7c0-0.5,0.6-0.7,1.1-0.7c0.6,0,1.1,0.2,1.1,0.7v8.1c0,2.9-1.9,3.9-4.2,3.9c-2.4,0-4.2-1.1-4.2-3.9v-8.1
	c0-0.5,0.6-0.7,1.1-0.7c0.6,0,1.1,0.2,1.1,0.7v8.1c0,1.3,0.7,2,1.9,2s1.9-0.6,1.9-2L-181.2,413.7L-181.2,413.7z"/>
<path d="M-176.7,429h-8.4c-0.8,0-1.5,0.7-1.5,1.5c0,0.8,0.7,1.5,1.5,1.5h8.4c0.8,0,1.5-0.7,1.5-1.5
	C-175.2,429.7-175.9,429-176.7,429z"/>
<path d="M-192,429h-33.8c-0.8,0-1.5,0.7-1.5,1.5c0,0.8,0.7,1.5,1.5,1.5h33.8c0.8,0,1.5-0.7,1.5-1.5C-190.5,429.7-191.1,429-192,429z
	"/>
<path d="M-176.7,406.8h-49.1c-0.8,0-1.5,0.7-1.5,1.5c0,0.8,0.7,1.5,1.5,1.5h49.1c0.8,0,1.5-0.7,1.5-1.5
	C-175.2,407.5-175.9,406.8-176.7,406.8z"/>
<path d="M-177.5,388.8h-1.4c-0.6-10-8-18.3-17.8-20.2l0.3-2.7c0.1-0.9-0.2-1.8-0.8-2.4c-0.6-0.7-1.5-1-2.4-1h-3.2
	c-0.9,0-1.8,0.4-2.4,1c-0.6,0.7-0.9,1.5-0.8,2.4l0.3,2.7c-9.8,2-17.3,10.2-17.8,20.2h-1.4c-1.3,0-2.3,1-2.3,2.3v3
	c0,1.2,1,2.3,2.3,2.3h47.5c1.3,0,2.3-1,2.3-2.3v-3C-175.2,389.8-176.2,388.8-177.5,388.8z M-203,365.4c0,0,0.1-0.1,0.2-0.1h3.2
	c0.1,0,0.1,0,0.2,0.1c0,0,0.1,0.1,0.1,0.2l-0.3,2.6c-0.5,0-1-0.1-1.5-0.1c-0.5,0-1,0-1.5,0.1l-0.3-2.6
	C-203,365.5-203,365.5-203,365.4z M-178.2,393.4h-46.1v-1.7h6.3c0.8,0,1.5-0.7,1.5-1.5s-0.7-1.5-1.5-1.5h-2.5
	c0.6-9.9,9.1-17.8,19.3-17.8c10.3,0,18.7,7.9,19.3,17.8h-29.2c-0.8,0-1.5,0.7-1.5,1.5s0.7,1.5,1.5,1.5h33V393.4z"/>
<path d="M-166.1,348.1h-70.3c-2.1,0-3.8,1.7-3.8,3.7v2.6h-1.4c-2.5,0-4.6,2-4.6,4.5c0,2.5,2.1,4.5,4.6,4.5h1.4v6.2h-1.4
	c-2.5,0-4.6,2-4.6,4.5c0,2.5,2.1,4.5,4.6,4.5h1.4v6.2h-1.4c-2.5,0-4.6,2-4.6,4.5c0,2.5,2.1,4.5,4.6,4.5h1.4v6.2h-1.4
	c-2.5,0-4.6,2-4.6,4.5c0,2.5,2.1,4.5,4.6,4.5h1.4v6.2h-1.4c-2.5,0-4.6,2-4.6,4.5c0,2.5,2.1,4.5,4.6,4.5h1.4v6.2h-1.4
	c-2.5,0-4.6,2-4.6,4.5s2.1,4.5,4.6,4.5h1.4v2.6c0,2,1.7,3.7,3.8,3.7h70.3c2.1,0,3.8-1.7,3.8-3.7v-90.7
	C-162.3,349.8-164,348.1-166.1,348.1z M-240.2,360.6h-1.4c-0.9,0-1.7-0.7-1.7-1.6c0-0.9,0.7-1.6,1.7-1.6h1.4V360.6z M-240.2,375.9
	h-1.4c-0.9,0-1.7-0.7-1.7-1.6c0-0.9,0.7-1.6,1.7-1.6h1.4V375.9z M-240.2,391.2h-1.4c-0.9,0-1.7-0.7-1.7-1.6c0-0.9,0.7-1.6,1.7-1.6
	h1.4V391.2z M-240.2,406.5h-1.4c-0.9,0-1.7-0.7-1.7-1.6c0-0.9,0.7-1.6,1.7-1.6h1.4V406.5z M-240.2,421.7h-1.4
	c-0.9,0-1.7-0.7-1.7-1.6c0-0.9,0.7-1.6,1.7-1.6h1.4V421.7z M-240.2,437h-1.4c-0.9,0-1.7-0.7-1.7-1.6c0-0.9,0.7-1.6,1.7-1.6h1.4V437z
	 M-165.3,442.6c0,0.4-0.4,0.8-0.8,0.8h-70.3c-0.4,0-0.8-0.4-0.8-0.8v-90.7c0-0.4,0.4-0.8,0.8-0.8h70.3c0.4,0,0.8,0.4,0.8,0.8V442.6z
	"/>
</svg>
