<?xml version="1.0" encoding="utf-8"?>
<!-- Generator: Adobe Illustrator 19.0.0, SVG Export Plug-In . SVG Version: 6.00 Build 0)  -->
<svg version="1.1" id="Warstwa_1" xmlns="http://www.w3.org/2000/svg" xmlns:xlink="http://www.w3.org/1999/xlink" x="0px" y="0px"
	 viewBox="0 0 500 400" style="enable-background:new 0 0 500 400;" xml:space="preserve">
<g id="XMLID_1_">
	<g id="XMLID_13_">
		<path id="XMLID_4_" d="M418.1,25.8c10.4-2.3,20.8-4.5,31.3-6.6c5.4-1,10.8-2,16.2-3c2.2-0.4,5.4-1.6,7.6-1.3
			c-1.8-0.2-0.3-1.1-1,0.4c-0.5,1,0,3.5,0,4.6c-0.4,20.7-4.6,40.9-12.1,60.2c-2.8,7.2,8.8,10.3,11.6,3.2c4.6-11.7,8-23.8,10-36.2
			c1-6,1.7-12,2.1-18c0.4-5.8,1.3-12.4,0-18.1c-3-13-20.1-6.6-28.9-4.9c-13.3,2.5-26.6,5.2-39.8,8.2C407.4,16,410.6,27.5,418.1,25.8
			L418.1,25.8z"/>
	</g>
</g>
<g id="XMLID_2_">
	<g id="XMLID_20_">
		<path id="XMLID_5_" d="M287.8,22.7C311,38,322.1,64.6,336.9,87c7.2,10.9,15.4,21.6,25.7,29.8c11.3,9.1,23.7,14,38,15.9
			c18.3,2.5,35.8,5.6,53.2,12.2c7.2,2.7,10.4-8.9,3.2-11.6c-14.7-5.6-29.9-9.3-45.5-11.2c-14.6-1.9-27.9-4-39.9-13.3
			c-21.3-16.4-32.1-42.3-46.7-64.1c-8.5-12.6-18.3-24-31-32.4C287.4,8.1,281.4,18.5,287.8,22.7L287.8,22.7z"/>
	</g>
</g>
<g id="XMLID_3_">
	<g id="XMLID_27_">
		<path id="XMLID_6_" d="M466.7,213c-25.5,16.5-56.3,2.1-80.6-9.5c-12.7-6.1-25.4-12.7-36.7-21.2c-11.9-8.9-20.9-20.6-31.2-31.3
			c-10.5-10.9-21.8-20.8-33.2-30.7c-10-8.6-20-17.6-31.5-24.1c-12-6.8-24.6-9.4-38.3-8.7c-14.2,0.7-27.1,0.5-40.5-4.8
			c-29.4-11.8-49.4-38.1-67.9-62.5c-4.6-6.1-15-0.1-10.4,6.1c17.4,23,35.5,46.7,61,61.3c12,6.8,25.2,11.4,39,12.5
			c15,1.1,29.5-2.9,44,3c12.6,5.2,23.2,14.5,33.4,23.3c12.1,10.4,24.3,20.9,35.4,32.5c10.7,11,20,22.9,32.3,32.3
			c11.7,9,24.7,15.9,37.9,22.3c28.4,13.7,63.7,29.1,93.4,9.9C479.2,219.2,473.2,208.8,466.7,213L466.7,213z"/>
	</g>
</g>
<g id="XMLID_7_">
	<g id="XMLID_34_">
		<path id="XMLID_38_" d="M5.8,21.7c18.1,4.2,32.3,15.9,40.3,32.6c9.7,20.4,7,41.6,3,63c-3.9,21.5-6.2,46.3,9.8,63.7
			c16.3,17.7,42.1,18.1,64.4,19.8c24.8,1.8,48.8,9.7,71.3,19.9c9.7,4.3,19.5,9.4,27.7,16.2c8.6,7.2,14.5,15.8,19.1,25.9
			c4.8,10.4,8.3,21.4,14.1,31.3c5.1,8.8,12.1,16.2,20.3,22.2c17,12.5,38.1,17.7,58.7,20.3c28.9,3.6,58.3,2.6,86.1,12.6
			c25,9.1,47.2,24.8,67.4,41.8c5.9,4.9,14.4-3.5,8.5-8.5c-18.2-15.3-37.7-29.6-59.5-39.5c-23-10.4-46.9-14-71.9-15.9
			c-23.3-1.7-47.6-2.8-69.1-13c-9.4-4.4-18.1-10.4-24.7-18.4c-6.9-8.4-10.8-18.7-14.9-28.6c-4.3-10.5-8.9-20.7-16.2-29.6
			c-6.9-8.4-15.9-15-25.3-20.3c-20.3-11.6-43.9-20.2-66.8-25.2c-12.6-2.7-25.4-3.3-38.2-4.3c-11.7-0.9-23.8-2.6-34.1-8.7
			c-21.6-12.8-18.6-39.4-14.7-60.6c2.5-13.5,5-27.1,3.6-40.9c-1.1-10.5-3.8-20.6-8.4-30.1C46.8,28.7,29.6,14.9,9,10.1
			C1.5,8.4-1.8,19.9,5.8,21.7L5.8,21.7z"/>
	</g>
</g>
</svg>
