<?xml version="1.0" encoding="utf-8"?>
<!-- Generator: Adobe Illustrator 19.0.0, SVG Export Plug-In . SVG Version: 6.00 Build 0)  -->
<svg version="1.1" id="Warstwa_1" xmlns="http://www.w3.org/2000/svg" xmlns:xlink="http://www.w3.org/1999/xlink" x="0px" y="0px"
	 viewBox="-274 366 62 62" style="enable-background:new -274 366 62 62;" xml:space="preserve">
<g>
	<g>
		<path d="M-243,405.1c-1.9,0-3.8-0.5-5.5-1.5c-8.3-4.9-13.5-13.9-13.5-23.6v-13c0-0.6,0.4-1,1-1h36c0.6,0,1,0.4,1,1v13
			c0,9.6-5.2,18.7-13.5,23.6C-239.2,404.6-241.1,405.1-243,405.1z M-259,368c-0.6,0-1,0.4-1,1v11c0,8.9,4.8,17.3,12.5,21.8
			c2.8,1.6,6.2,1.6,9,0c7.7-4.5,12.5-12.8,12.5-21.8v-11c0-0.6-0.4-1-1-1H-259z"/>
	</g>
	<g>
		<path d="M-232,420h-22c-0.6,0-1-0.4-1-1v-4c0-0.6,0.4-1,1-1h22c0.6,0,1,0.4,1,1v4C-231,419.6-231.4,420-232,420z M-252,418h18
			c0.6,0,1-0.4,1-1l0,0c0-0.6-0.4-1-1-1h-18c-0.6,0-1,0.4-1,1l0,0C-253,417.6-252.6,418-252,418z"/>
	</g>
	<g>
		<path d="M-230,428h-26c-0.6,0-1-0.4-1-1v-8c0-0.6,0.4-1,1-1h26c0.6,0,1,0.4,1,1v8C-229,427.6-229.4,428-230,428z M-254,426h22
			c0.6,0,1-0.4,1-1v-4c0-0.6-0.4-1-1-1h-22c-0.6,0-1,0.4-1,1v4C-255,425.6-254.6,426-254,426z"/>
	</g>
	<g>
		<path d="M-240,416h-6c-0.6,0-1-0.4-1-1v-12.8l1.3,0.4c1.8,0.6,3.6,0.6,5.4,0l1.3-0.4V415C-239,415.6-239.4,416-240,416z M-244,414
			h2c0.6,0,1-0.4,1-1v-7c0-0.6-0.5-1-1.1-1c-0.6,0-1.3,0-1.9,0c-0.6,0-1.1,0.4-1.1,1v7C-245,413.6-244.6,414-244,414z"/>
	</g>
	<g>
		<g>
			<path d="M-254.1,396.7l-3.3-1.7c-9-4.7-14.6-13.9-14.6-24v-1h11c0.6,0,1,0.4,1,1v9c0,4.8,1.4,9.5,3.9,13.6L-254.1,396.7z
				 M-269.9,373.1c0.5,6.1,3.2,11.6,7.4,15.8c0.8,0.7,2,0,1.7-1c-0.7-2.5-1.1-5.2-1.1-7.8v-7c0-0.6-0.4-1-1-1h-5.9
				C-269.5,372-270,372.5-269.9,373.1z"/>
		</g>
		<g>
			<path d="M-231.9,396.7l2-3.1c2.5-4.1,3.9-8.8,3.9-13.6v-9c0-0.6,0.4-1,1-1h11v1c0,10.1-5.6,19.3-14.6,24L-231.9,396.7z M-223,372
				c-0.6,0-1,0.4-1,1v7c0,2.6-0.4,5.3-1.1,7.8c-0.3,1,0.9,1.7,1.7,1c4.3-4.1,6.9-9.7,7.4-15.7c0-0.6-0.4-1.1-1-1.1H-223z"/>
		</g>
	</g>
	<g>
		<path d="M-229.6,379.5 M-243,369.8 M-256.4,379.5 M-251.3,395.2 M-234.7,395.2 M-250.2,381.4 M-243,376.2"/>
	</g>
</g>
<path d="M-243.9,372.1l-4.9-1c-0.2,0-0.4,0.1-0.5,0.3c-0.1,0.1-1.8,3.2-2.5,7.2c-0.2,0.9-0.2,1.8-0.2,2.7c0,0.7,0.1,1.4,0.2,2
	c0,0.2,0.1,0.4,0.1,0.6c0.4,1.4,1.1,2.3,2.1,2.7l-1,5.9l-2.3-0.4c-0.6-0.1-1.2,0.2-1.4,0.8c0,0.1-0.1,0.2-0.1,0.3c0,0.1,0,0.2,0,0.3
	c0,0.3,0.1,0.6,0.3,0.9c0.2,0.2,0.5,0.4,0.8,0.5l5.5,1.1c0.5,0.1,1-0.1,1.3-0.5c0.1-0.1,0.1-0.2,0.2-0.4c0-0.2,0.1-0.3,0.1-0.5
	c0-0.3-0.1-0.6-0.3-0.8c-0.2-0.2-0.5-0.4-0.8-0.5l-2.3-0.4l1-5.9c0.9,0,1.9-0.6,2.7-1.6c0.1-0.1,0.1-0.2,0.2-0.3
	c0.6-0.8,1.1-1.8,1.5-3c0.2-0.6,0.3-1.2,0.5-1.8c0.7-4,0.2-7.5,0.2-7.7C-243.5,372.3-243.7,372.2-243.9,372.1z M-247.3,394.2
	c0,0.1,0,0.1,0,0.2c0,0.1,0,0.1,0,0.2c0,0.1-0.1,0.2-0.3,0.2l-5.5-1.1c-0.1,0-0.1-0.1-0.2-0.1c0-0.1,0-0.2,0-0.3
	c0-0.1,0-0.2,0.1-0.2c0.1,0,0.1-0.1,0.2-0.1l5.5,1.1C-247.4,394.1-247.3,394.2-247.3,394.2z M-248.6,372.3l4.1,0.8
	c0.1,1,0.3,3.9-0.2,6.9c0,0.2-0.1,0.5-0.2,0.7l-6.1,0c0-0.6,0.1-1.3,0.2-2C-250.2,375.8-249,373.2-248.6,372.3z M-245.6,382.9
	c-0.3,0.5-0.6,1.1-0.9,1.5c-0.5,0.7-1.1,1.1-1.7,1.3c-0.3,0.1-0.6,0.1-0.8,0c-0.5-0.1-0.9-0.5-1.2-1.1c-0.4-0.6-0.6-1.4-0.7-2.1
	c0-0.2-0.1-0.4-0.1-0.6l5.8,0C-245.3,382.2-245.4,382.5-245.6,382.9z"/>
<path d="M-245.6,378.3C-245.6,378.3-245.5,378.3-245.6,378.3c0.3,0,0.5-0.2,0.5-0.5c0.1-1.1,0.1-2.2,0.1-3.3c0-0.3-0.2-0.5-0.5-0.5
	c-0.3,0-0.5,0.3-0.5,0.5c0,1.1,0,2.1-0.1,3.2C-246.1,378-245.9,378.2-245.6,378.3z"/>
<path d="M-231.3,393.1c0-0.2-0.1-0.4-0.2-0.6c-0.1-0.1-0.2-0.3-0.3-0.4c-0.3-0.2-0.7-0.3-1-0.2l-2.3,0.5l-1.1-5.9
	c1.9-0.8,2.9-4.2,2.1-8c-0.8-4-2.5-7.1-2.6-7.2c-0.1-0.2-0.3-0.3-0.5-0.2l-4.9,1c-0.2,0-0.4,0.2-0.4,0.4c0,0.1-0.5,3.7,0.3,7.7
	c0.7,3.8,2.8,6.5,4.9,6.5l1.1,5.9l-2.3,0.5c-0.5,0.1-0.9,0.5-1,1c-0.1,0.3,0,0.6,0.1,0.9c0.1,0.3,0.3,0.5,0.5,0.7
	c0.3,0.2,0.6,0.3,0.9,0.2l5.5-1.2C-231.6,394.4-231.1,393.8-231.3,393.1z M-241.4,373.1l4.1-0.9c0.5,0.9,1.7,3.5,2.3,6.5
	c0,0.1,0.1,0.3,0.1,0.4l-6.3,0C-241.7,376.4-241.5,374-241.4,373.1z M-232.3,393.5c0,0-0.1,0.1-0.1,0.1l-5.5,1.2
	c-0.1,0-0.1,0-0.2-0.1c-0.1-0.1-0.1-0.1-0.1-0.2c0-0.1,0-0.2,0-0.2c0-0.1,0.1-0.1,0.2-0.1l5.5-1.2c0.1,0,0.2,0,0.3,0.2
	C-232.3,393.2-232.2,393.4-232.3,393.5z M-237.2,385.7c-0.4,0-0.8-0.2-1.2-0.5c-0.3-0.3-0.6-0.6-0.9-0.9c-0.2-0.2-0.3-0.4-0.4-0.7
	c-0.3-0.4-0.5-0.9-0.7-1.5c-0.2-0.6-0.4-1.3-0.6-1.9l6.2,0c0.1,0.9,0,1.9-0.2,2.9c-0.1,0.3-0.1,0.5-0.2,0.8c-0.3,1-0.9,1.6-1.5,1.8
	C-236.9,385.7-237.1,385.7-237.2,385.7z"/>
<path d="M-242.5,369.7c0-0.3-0.2-0.5-0.5-0.5c-0.3,0-0.5,0.2-0.5,0.5l0,1.7c0,0.3,0.2,0.5,0.5,0.5c0.3,0,0.5-0.2,0.5-0.5
	L-242.5,369.7z"/>
<path d="M-245.1,371.2c0.1,0.2,0.3,0.2,0.4,0.2c0.1,0,0.2,0,0.3-0.1c0.2-0.2,0.3-0.5,0.2-0.7l-0.6-1.1c-0.1-0.2-0.5-0.3-0.7-0.2
	c-0.2,0.2-0.3,0.5-0.2,0.7L-245.1,371.2z"/>
<path d="M-241.6,371.3c0.1,0.1,0.2,0.1,0.3,0.1c0.2,0,0.3-0.1,0.4-0.3l0.6-1.1c0.1-0.2,0.1-0.6-0.2-0.7c-0.2-0.1-0.5-0.1-0.7,0.2
	l-0.6,1.1C-241.9,370.8-241.8,371.2-241.6,371.3z"/>
<path d="M-237.6,375.6c0.2,0.5,0.4,1.1,0.5,1.7c0.1,0.2,0.1,0.5,0.3,0.6c0.2,0.1,0.4,0.1,0.6,0c0.2-0.1,0.2-0.3,0.2-0.5
	c-0.1-0.3-0.1-0.5-0.2-0.8c-0.1-0.3-0.2-0.6-0.3-0.8c0-0.1-0.1-0.3-0.1-0.4c0-0.1-0.1-0.2-0.2-0.2c-0.2-0.1-0.4-0.1-0.6,0
	C-237.7,375.2-237.7,375.4-237.6,375.6z"/>
<path d="M-245.3,379.8c0,0.3-0.2,0.5-0.5,0.5c-0.3,0-0.5-0.2-0.5-0.5c0-0.3,0.2-0.5,0.5-0.5C-245.5,379.3-245.3,379.5-245.3,379.8z"
	/>
<path d="M-237.4,373.5c0,0.3-0.2,0.5-0.5,0.5c-0.3,0-0.5-0.2-0.5-0.5c0-0.3,0.2-0.5,0.5-0.5C-237.7,373-237.4,373.2-237.4,373.5z"/>
</svg>
